<?xml version="1.0" encoding="utf-8"?>
<!-- Generator: Adobe Illustrator 21.0.0, SVG Export Plug-In . SVG Version: 6.00 Build 0)  -->
<svg version="1.1" id="Layer_3_copy_2" xmlns="http://www.w3.org/2000/svg" xmlns:xlink="http://www.w3.org/1999/xlink" x="0px"
	 y="0px" viewBox="0 0 50 50" style="enable-background:new 0 0 50 50;" xml:space="preserve">
<style type="text/css">
	.st0{fill:#333333;}
</style>
<g>
	<g>
		<path class="st0" d="M44.1,18.7h-5.5V6H11.4v12.6H5.9c-1.1,0-2,0.9-2,2v14.7c0,1.1,0.9,2,2,2h5.5V44h27.2v-6.6h5.5
			c1.1,0,2-0.9,2-2V20.7C46.1,19.6,45.2,18.7,44.1,18.7z M7.9,25.3c-1.1,0-2-0.9-2-2c0-1.1,0.9-2,2-2c1.1,0,2,0.9,2,2
			C10,24.4,9.1,25.3,7.9,25.3z M36.1,8.5v14.8H13.9V8.5H36.1z M13.9,41.5V35h22.2v6.5H13.9z"/>
		<rect x="17.2" y="11.5" class="st0" width="15.6" height="2"/>
		<rect x="17.2" y="18.3" class="st0" width="15.6" height="2"/>
	</g>
</g>
</svg>
