<?xml version="1.0" encoding="utf-8"?>
<!-- Generator: Adobe Illustrator 21.0.0, SVG Export Plug-In . SVG Version: 6.00 Build 0)  -->
<svg version="1.1" id="Layer_10" xmlns="http://www.w3.org/2000/svg" xmlns:xlink="http://www.w3.org/1999/xlink" x="0px" y="0px"
	 viewBox="0 0 50 50" style="enable-background:new 0 0 50 50;" xml:space="preserve">
<style type="text/css">
	.st0{fill:#333333;}
</style>
<g>
	<path class="st0" d="M39.6,12.8c-1.2-1.4-5.9-6.4-14.4-6.4C13.7,6.5,7.3,17.2,7.3,17.2s4.1-1.8,10.4-1.8c7.1,0,11.6,3.9,13.4,5.9
		L27,25.5h16.7V8.8L39.6,12.8z"/>
	<path class="st0" d="M18.9,28.6l4.2-4.2H6.3v16.8l4.1-4.1c1.2,1.4,5.9,6.4,14.4,6.4c11.5,0,17.9-10.8,17.9-10.8s-4.1,1.8-10.4,1.8
		C25.2,34.5,20.7,30.6,18.9,28.6z"/>
</g>
</svg>
